<svg xmlns="http://www.w3.org/2000/svg" width="24" height="24" viewBox="0 0 24 24">
    <path d="M21.7 18V17L22.8 16.2C22.9 16.1 23 16 22.9 15.9L21.9 14.2C21.9 14.1 21.7 14.1 21.6 14.1L20.4 14.6C20.1 14.4 19.8 14.2 19.5 14.1L19.3 12.8C19.3 12.7 19.2 12.6 19.1 12.6H17.1C16.9 12.6 16.8 12.7 16.8 12.8L16.6 14.1C16.3 14.3 16.1 14.4 15.8 14.6L14.6 14.1C14.5 14.1 14.4 14.1 14.3 14.2L13.3 15.9C13.3 16 13.3 16.1 13.4 16.2L14.5 17V18L13.4 18.8C13.3 18.9 13.2 19 13.3 19.1L14.3 20.8C14.4 20.9 14.5 20.9 14.6 20.9L15.8 20.4C16 20.6 16.3 20.8 16.6 20.9L16.8 22.2C16.9 22.3 17 22.4 17.1 22.4H19.1C19.2 22.4 19.3 22.3 19.3 22.2L19.5 20.9C19.8 20.7 20 20.6 20.3 20.4L21.5 20.8C21.6 20.8 21.7 20.8 21.8 20.7L22.8 19C22.9 18.9 22.9 18.8 22.8 18.8L21.7 18M18 18.9C17.2 18.9 16.5 18.2 16.5 17.4S17.2 15.9 18 15.9 19.5 16.6 19.5 17.4 18.8 18.9 18 18.9M12 20.4H3.63C2.64 20.4 1.83 19.59 1.83 18.6V4.2C1.83 3.21 2.64 2.4 3.63 2.4H19.83C20.82 2.4 21.63 3.21 21.63 4.2V12.39C21.09 11.85 20.46 11.4 19.83 11.13V5.1H3.63V18.6H11.1C11.28 19.23 11.55 19.86 12 20.4ZM8.94 6.45 7.86 9.33 4.98 10.41 7.86 11.49 8.94 14.37 10.02 11.49 12.9 10.41 10.02 9.33 8.94 6.45Z" />
</svg>
