<svg xmlns="http://www.w3.org/2000/svg" width="24" height="24" viewBox="0 0 24 24">
    <path d="M13.72 21.84C13.16 21.94 12.59 22 12 22 6.5 22 2 17.5 2 12S6.5 2 12 2 22 6.5 22 12C22 12.59 21.94 13.16 21.84 13.72 21 13.26 20.03 13 19 13 17.74 13 16.57 13.39 15.6 14.06L12.5 12.2V7H11V13L14.43 15.11C13.54 16.16 13 17.5 13 19 13 20.03 13.26 21 13.72 21.84M18.8 19l1.62-1.62c-.45-.36-.99-.63-1.62-.63-1.26 0-2.25.99-2.25 2.25s.99 2.25 2.25 2.25c.72 0 1.35-.36 1.8-.9h1.53c-.54 1.35-1.8 2.25-3.33 2.25-1.98 0-3.6-1.62-3.6-3.6s1.62-3.6 3.6-3.6c.99 0 1.89.36 2.52 1.08l1.08-1.08v3.6h-3.6"/>
</svg>
