<svg xmlns="http://www.w3.org/2000/svg" viewBox="0 0 24 24">
    <path d="M14.1 14.5C13.33 15.44 12.91 16.55 12.91 17.82 12.91 18.67 13.16 19.52 13.5 20.2 13.08 20.28 12.57 20.37 12.06 20.37 7.38 20.37 3.56 16.55 3.56 11.87 3.56 7.19 7.38 3.37 12.06 3.37 16.74 3.37 20.56 7.19 20.56 11.87 20.56 12.3 20.49 12.69 20.42 13.14L20.39 13.31C19.71 12.97 18.86 12.72 18.01 12.72 16.9 12.72 15.97 13.06 15.12 13.65L12.49 12.04V7.62H11.21V12.72L14.1 14.5M16.94 16.76 18.01 14.42 19.07 16.76 21.41 17.82 19.07 18.89 18.01 21.22 16.94 18.89 14.61 17.82 16.94 16.76Z"/>
</svg>
