<svg xmlns="http://www.w3.org/2000/svg" width="24" height="24" viewBox="0 0 24 24">
    <path d="M16.7 3.8C15.04 3.8 13.26 4.18 12.03 5.22 10.8 4.18 9.01 3.8 7.36 3.8S3.9 4.18 2.67 5.22V19.14C2.67 19.76 3.29 19.57 3.31 19.57 4.45 18.95 6.11 18.52 7.34 18.52 9 18.52 10.78 18.91 12.01 19.95 13.16 19.14 15.24 18.52 16.68 18.52 18.08 18.52 19.53 18.81 20.72 19.52 21.08 19.72 21.37 19.34 21.37 19.09V5.22C20.1 4.16 18.28 3.8 16.7 3.8ZM19.67 17.1C18.73 16.77 17.72 16.63 16.69 16.63 15.25 16.63 13.16 17.24 12.02 18.05V7.13C13.17 6.32 15.25 5.7 16.69 5.7 17.71 5.7 18.73 5.84 19.67 6.17V17.1Z" />
</svg>
