<svg xmlns="http://www.w3.org/2000/svg" width="24" height="24" viewBox="0 0 24 24">
    <path d="M16.7 3.8C15.04 3.8 13.26 4.18 12.02 5.22 10.79 4.18 9 3.8 7.35 3.8S3.91 4.18 2.68 5.22V19.14C2.68 19.76 3.3 19.57 3.32 19.57 4.47 18.95 6.12 18.52 7.36 18.52 9.02 18.52 10.8 18.9 12.03 19.95 13.18 19.14 15.26 18.52 16.71 18.52 18.11 18.52 19.56 18.81 20.75 19.52 21.1 19.72 21.39 19.34 21.39 19.09V5.22C20.12 4.16 18.3 3.8 16.71 3.8ZM19.67 17.1C18.74 16.77 17.71 16.62 16.7 16.62 15.25 16.62 13.17 17.24 12.03 18.05V7.13C13.18 6.32 15.26 5.7 16.71 5.7 17.73 5.7 18.75 5.84 19.69 6.18V17.11ZM7.35 8.17 8.27 10.92 10.72 11.96 8.27 13 7.35 15.75 6.43 13 3.98 11.96 6.43 10.92 7.35 8.17Z" />
</svg>
