<svg xmlns="http://www.w3.org/2000/svg" width="24" height="24" viewBox="0 0 24 24">
    <path d="M5 19.5H12V17.5H5M19 8.5H15V2.5H9V8.5H5L12 15.5 19 8.5ZM17.5 13.5C17.37 13.5 17.26 13.59 17.24 13.71L17.05 15.03C16.75 15.16 16.46 15.32 16.2 15.5L14.96 15C14.85 15 14.72 15 14.65 15.13L13.65 16.86C13.59 16.97 13.61 17.1 13.71 17.18L14.77 18C14.75 18.17 14.74 18.33 14.74 18.5 14.74 18.67 14.75 18.83 14.77 19L13.71 19.82C13.62 19.9 13.59 20.03 13.65 20.14L14.65 21.87C14.71 22 14.84 22 14.96 22L16.2 21.5C16.46 21.68 16.74 21.85 17.05 21.97L17.24 23.29C17.26 23.41 17.36 23.5 17.5 23.5H19.5C19.61 23.5 19.72 23.41 19.74 23.29L19.93 21.97C20.23 21.84 20.5 21.68 20.77 21.5L22 22C22.13 22 22.26 22 22.33 21.87L23.33 20.14C23.39 20.03 23.36 19.9 23.27 19.82L22.2 19C22.22 18.83 22.24 18.67 22.24 18.5 22.24 18.33 22.23 18.17 22.2 18L23.26 17.18C23.35 17.1 23.38 16.97 23.32 16.86L22.32 15.13C22.26 15 22.13 15 22 15L20.77 15.5C20.5 15.32 20.23 15.15 19.92 15.03L19.73 13.71C19.72 13.59 19.61 13.5 19.5 13.5H17.5M18.5 17C19.33 17 20 17.67 20 18.5 20 19.33 19.33 20 18.5 20 17.66 20 17 19.33 17 18.5 17 17.67 17.67 17 18.5 17Z" />
</svg>
