<svg xmlns="http://www.w3.org/2000/svg" width="24" height="24" viewBox="0 0 24 24">
    <path d="M5 19.5H12.5V17.5H5M19 8.5H15V2.5H9V8.5H5L12 15.5 19 8.5ZM18 13.5C17.87 13.5 17.76 13.59 17.74 13.71L17.55 15.03C17.25 15.16 16.96 15.32 16.7 15.5L15.46 15C15.35 15 15.22 15 15.15 15.13L14.15 16.86C14.09 16.97 14.11 17.1 14.21 17.18L15.27 18C15.25 18.17 15.24 18.33 15.24 18.5 15.24 18.67 15.25 18.83 15.27 19L14.21 19.82C14.12 19.9 14.09 20.03 14.15 20.14L15.15 21.87C15.21 22 15.34 22 15.46 22L16.7 21.5C16.96 21.68 17.24 21.85 17.55 21.97L17.74 23.29C17.76 23.41 17.86 23.5 18 23.5H20C20.11 23.5 20.22 23.41 20.24 23.29L20.43 21.97C20.73 21.84 21 21.68 21.27 21.5L22.5 22C22.63 22 22.76 22 22.83 21.87L23.83 20.14C23.89 20.03 23.86 19.9 23.77 19.82L22.7 19C22.72 18.83 22.74 18.67 22.74 18.5 22.74 18.33 22.73 18.17 22.7 18L23.76 17.18C23.85 17.1 23.88 16.97 23.82 16.86L22.82 15.13C22.76 15 22.63 15 22.5 15L21.27 15.5C21 15.32 20.73 15.15 20.42 15.03L20.23 13.71C20.22 13.59 20.11 13.5 20 13.5H18M19 17C19.83 17 20.5 17.67 20.5 18.5 20.5 19.33 19.83 20 19 20 18.16 20 17.5 19.33 17.5 18.5 17.5 17.67 18.17 17 19 17Z" />
</svg>
