<svg xmlns="http://www.w3.org/2000/svg" width="24" height="24" viewBox="0 0 24 24">
    <path d="M20 12C20 8.64 17.93 5.77 15 4.59V5C15 6.1 14.1 7 13 7H11V9C11 9.55 10.55 10 10 10H8V12H14C14.5 12 14.9 12.35 15 12.81 13.2 13.85 12 15.79 12 18 12 19.5 12.54 20.85 13.44 21.9L12 22C6.5 22 2 17.5 2 12 2 6.5 6.5 2 12 2 17.5 2 22 6.5 22 12L21.9 13.44C21.34 12.96 20.7 12.59 20 12.34L20 12M11 19.93V18C9.9 18 9 17.1 9 16V15L4.21 10.21C4.08 10.78 4 11.38 4 12 4 16.08 7.06 19.44 11 19.93ZM17 13h1.8v5.4h-1.8v-5.4m0 7.2h1.8v1.8h-1.8v-1.8"/>
</svg>
