<svg xmlns="http://www.w3.org/2000/svg" width="24" height="24" viewBox="0 0 24 24">
    <path d="M12 4.5A11.8 11.8 0 001 12 11.8 11.8 0 0012 19.5H13.1A3.8 3.8 0 0113 18.5 9.9 9.9 0 0113.2 16.8L12 17A5 5 0 1117 12 2.8 2.8 0 0116.9 12.9 5.2 5.2 0 0119 12.5 5.6 5.6 0 0122.3 13.5 10.1 10.1 0 0023 12 11.8 11.8 0 0012 4.5M12 9A3 3 0 1015 12 2.9 2.9 0 0012 9M19 1M18.6 14c-2.32 0-4.2 1.88-4.2 4.2a4.2 4.2 90 004.2 4.2c2.32 0 4.2-1.88 4.2-4.2a4.2 4.2 90 00-4.2-4.2m0 1.29c1.6 0 2.91 1.3 2.91 2.91a2.91 2.91 90 01-2.91 2.91c-1.61 0-2.91-1.3-2.91-2.91a2.91 2.91 90 012.91-2.91m-.6 1.11v2.22l1.91 1.1.45-.78-1.46-.85v-1.7" />
</svg>
