<svg xmlns="http://www.w3.org/2000/svg" width="24" height="24" viewBox="0 0 24 24">
    <path d="M12 4.5A11.8 11.8 0 001 12 11.8 11.8 0 0012 19.5H13.1A3.8 3.8 0 0113 18.5 9.9 9.9 0 0113.2 16.8L12 17A5 5 0 1117 12 2.8 2.8 0 0116.9 12.9 5.2 5.2 0 0119 12.5 5.6 5.6 0 0122.3 13.5 10.1 10.1 0 0023 12 11.8 11.8 0 0012 4.5M12 9A3 3 0 1015 12 2.9 2.9 0 0012 9M21.6 20.8C21.496 20.48 21.196 20.244 20.84 20.244H20.44V19.044A.4.4 90 0020.04 18.644H17.64V17.844H18.44A.4.4 90 0018.84 17.444V16.644H19.64A.8.8 90 0020.44 15.844V15.68C21.612 16.152 22.44 17.3 22.44 18.644 22.44 19.476 22.12 20.232 21.6 20.8M18.84 21.816C17.26 21.62 16.04 20.276 16.04 18.644 16.04 18.396 16.072 18.156 16.124 17.928L18.04 19.844V20.244A.8.8 90 0018.84 21.044M19.24 14.644A4 4 90 0015.24 18.644 4 4 90 0019.24 22.644 4 4 90 0023.24 18.644 4 4 90 0019.24 14.644Z" />
</svg>
