<svg xmlns="http://www.w3.org/2000/svg" width="24" height="24" viewBox="0 0 24 24">
    <path d="M12 4.5A11.8 11.8 0 001 12 11.8 11.8 0 0012 19.5H13.1A3.8 3.8 0 0113 18.5 9.9 9.9 0 0113.2 16.8L12 17A5 5 0 1117 12 2.8 2.8 0 0116.9 12.9 5.2 5.2 0 0119 12.5 5.6 5.6 0 0122.3 13.5 10.1 10.1 0 0023 12 11.8 11.8 0 0012 4.5M12 9A3 3 0 1015 12 2.9 2.9 0 0012 9M19.1 15.8H18.2V17.8L19.8 18.8 20.3 18.2 19.1 17.5V15.8M18.8 13.8A3.6 3.6 90 0015.1 17.4H14.1L15.6 19 17.1 17.4H16.1A2.8 2.8 90 0118.9 14.7 2.8 2.8 90 0121.5 17.5 2.8 2.8 90 0118.8 20.1C18 20.1 17.4 19.7 17 19.2L16.25 19.96C16.9 20.62 17.8 21 18.79 21.02A3.6 3.6 90 0022.4 17.5 3.6 3.6 90 0018.8 13.8" />
</svg>
