<svg xmlns="http://www.w3.org/2000/svg" width="24" height="24" viewBox="0 0 24 24">
    <path d="M12 4.5A11.8 11.8 0 001 12 11.8 11.8 0 0012 19.5H13.1A3.8 3.8 0 0113 18.5 9.9 9.9 0 0113.2 16.8L12 17A5 5 0 1117 12 2.8 2.8 0 0116.9 12.9 5.2 5.2 0 0119 12.5 5.6 5.6 0 0122.3 13.5 10.1 10.1 0 0023 12 11.8 11.8 0 0012 4.5M12 9A3 3 0 1015 12 2.9 2.9 0 0012 9M19 21.2c-1.34 0-2.4-1.06-2.4-2.4 0-.38.1-.77.29-1.06l-1.06-1.06c-.38.58-.67 1.34-.67 2.11 0 2.11 1.73 3.84 3.84 3.84v1.44l2.11-2.11-2.11-2.21v1.44m0-6.24v-1.44l-2.11 2.11 2.11 2.11v-1.34c1.34 0 2.4 1.06 2.4 2.4 0 .38-.1.77-.29 1.06l1.06 1.06c.38-.58.67-1.34.67-2.11 0-2.11-1.73-3.84-3.84-3.84z" />
</svg>
