<svg xmlns="http://www.w3.org/2000/svg" width="24" height="24" viewBox="0 0 24 24">
    <path d="M12 4.5A11.8 11.8 0 001 12 11.8 11.8 0 0012 19.5H13.1A3.8 3.8 0 0113 18.5 9.9 9.9 0 0113.2 16.8L12 17A5 5 0 1117 12 2.8 2.8 0 0116.9 12.9 5.2 5.2 0 0119 12.5 5.6 5.6 0 0122.3 13.5 10.1 10.1 0 0023 12 11.8 11.8 0 0012 4.5M12 9A3 3 0 1015 12 2.9 2.9 0 0012 9M18.9 20.6c-1.12 0-2-.88-2-2 0-.32.08-.64.24-.88l-.88-.88c-.32.48-.56 1.12-.56 1.76 0 1.76 1.44 3.2 3.2 3.2v1.2l1.76-1.76-1.76-1.84v1.2m0-5.2v-1.2l-1.76 1.76 1.76 1.76v-1.12c1.12 0 2 .88 2 2 0 .32-.08.64-.24.88l.88.88c.32-.48.56-1.12.56-1.76 0-1.76-1.44-3.2-3.2-3.2z" />
</svg>
