<svg xmlns="http://www.w3.org/2000/svg" width="24" height="24" viewBox="0 0 24 24">
    <path d="m12 4.5a11.8 11.8 0 00-11 7.5 11.8 11.8 0 0011 7.5h1.1a3.8 3.8 0 01-.1-1 9.9 9.9 0 01.2-1.7l-1.2.2a5 5 0 115-5 2.8 2.8 0 01-.1.9 5.2 5.2 0 012.1-.4 5.6 5.6 0 013.3 1 10.1 10.1 0 00.7-1.5 11.8 11.8 0 00-11-7.5m0 4.5a3 3 0 103 3 2.9 2.9 0 00-3-3m7.2 7.4h-.99v2.2l1.76 1.1.55-.66-1.32-.77v-1.87m-.33-2.2a3.96 3.96 90 00-4.07 3.96h-1.1l1.65 1.76 1.65-1.76h-1.1a3.08 3.08 90 013.08-2.97 3.08 3.08 90 012.86 3.08 3.08 3.08 90 01-2.97 2.86c-.88 0-1.54-.44-1.98-.99l-.825.836c.715.726 1.705 1.144 2.794 1.166a3.96 3.96 90 003.971-3.872 3.96 3.96 90 00-3.96-4.07" />
</svg>
