<svg xmlns="http://www.w3.org/2000/svg" width="24" height="24" viewBox="0 0 24 24">
    <path d="M13.5 8H12V13L14.71 14.56 15.51 13.46 13.5 12.1V8M13 3A9 9 0 004 12H1L4.96 16.03 9 12H6.1A7 7 0 0113 5 7 7 0 0120 12C20 12.37 19.97 12.72 19.92 13.08 20.61 13.18 21.25 13.4 21.84 13.72 21.94 13.16 22 12.59 22 12A9 9 0 0013 3M13 19C11.07 19 9.32 18.21 8.06 16.94L6.64 18.36C8.27 20 10.5 21 13 21 13.59 21 14.16 20.94 14.72 20.84 14.4 20.25 14.18 19.61 14.08 18.92 13.7 19 13.4 19 13 19M22 15H20.43L20 14.21H17.75L17.28 14.98H15.71V15.97H22.01M16.15 22A.9.9 90 0017.05 22.9H20.65A.9.9 90 0021.55 22V16.6H16.14V22Z" />
</svg>
