<svg xmlns="http://www.w3.org/2000/svg" width="24" height="24" viewBox="0 0 24 24">
    <path d="M13.5 8H12V13L14 14.2 15 13.1 13.5 12.1V8M13 3A9 9 0 004 12H1L4.96 16.03 9 12H6.1A7 7 0 0113 5 7 7 0 0120 12H22A9 9 0 0013 3M13 19C11.07 19 9.32 18.21 8.06 16.94L6.64 18.36C8.27 20 10.5 21 13 21V19M18.9 13.1c-2.61 0-4.72 2.12-4.72 4.72a4.72 4.72 90 004.72 4.72c2.61 0 4.72-2.12 4.72-4.72a4.72 4.72 90 00-4.72-4.72m0 1.45c1.8 0 3.28 1.47 3.28 3.28a3.28 3.28 90 01-3.28 3.28c-1.81 0-3.28-1.47-3.28-3.28a3.28 3.28 90 013.28-3.28m-.68 1.25v2.49l2.15 1.24.5-.87-1.65-.95v-1.91" />
</svg>
