<svg xmlns="http://www.w3.org/2000/svg" viewBox="0 0 24 24">
    <path d="M8.5 13.5 5 18H13.03C13.11 19.1 13.47 20.12 14.03 21H5C3.9 21 3 20.11 3 19V5C3 3.9 3.9 3 5 3H19C20.1 3 21 3.89 21 5V11.18c-.5-.11-1-.18-1.5-.18-1.72 0-3.27.67-4.43 1.76l-.57-.76-3.5 4.5-2.5-3M22 20c-.12-.384-.48-.672-.912-.672h-.48v-1.44a.48.48 90 00-.48-.48h-2.88v-.96h.96a.48.48 90 00.48-.48v-.96h.96a.96.96 90 00.96-.96v-.192c1.404.564 2.4 1.944 2.4 3.552 0 .996-.384 1.908-1.008 2.592m-3.312 1.224c-1.896-.24-3.36-1.848-3.36-3.804 0-.3.036-.588.096-.864l2.304 2.304v.48a.96.96 90 00.96.96m.48-7.68a4.8 4.8 90 00-4.8 4.8 4.8 4.8 90 004.8 4.8 4.8 4.8 90 004.8-4.8 4.8 4.8 90 00-4.8-4.8Z"/>
</svg>
