<svg xmlns="http://www.w3.org/2000/svg" width="24" height="24" viewBox="0 0 24 24">
    <path d="m8 13.5-3.5 4.5h8.03c.08 1.1.44 2.12 1 3h-9.03c-1.1 0-2-.89-2-2v-14c0-1.1.9-2 2-2h14c1.1 0 2 .89 2 2v6.18c-.5-.11-1-.18-1.5-.18-1.72 0-3.27.67-4.43 1.76l-.57-.76-3.5 4.5-2.5-3m13.2 6.2c-.12-.384-.48-.672-.912-.672h-.48v-1.44a.48.48 90 00-.48-.48h-2.88v-.96h.96a.48.48 90 00.48-.48v-.96h.96a.96.96 90 00.96-.96v-.192c1.404.564 2.4 1.944 2.4 3.552 0 .996-.384 1.908-1.008 2.592m-3.312 1.224c-1.896-.24-3.36-1.848-3.36-3.804 0-.3.036-.588.096-.864l2.304 2.304v.48a.96.96 90 00.96.96m.48-7.68a4.8 4.8 90 00-4.8 4.8 4.8 4.8 90 004.8 4.8 4.8 4.8 90 004.8-4.8 4.8 4.8 90 00-4.768-4.82z"/>
</svg>
