<svg xmlns="http://www.w3.org/2000/svg" width="24" height="24" viewBox="0 0 24 24">
    <path d="M21 4.5c-1.11-.35-2.33-.5-3.5-.5-1.95 0-4.05.4-5.5 1.5-1.45-1.1-3.55-1.5-5.5-1.5-1.95 0-4.05.4-5.5 1.5v14.65c0 .25.25.5.5.5.1 0 .15-.05.25-.05 1.35-.65 3.3-1.1 4.75-1.1 1.95 0 4.05.4 5.5 1.5v-13.5c1.35-.85 3.8-1.5 5.5-1.5 1.2 0 2.4.15 3.5.5v6c.6.1 1.7.7 2 1v-8c-.6-.45-1.25-.75-2-1ZM18.5 23.5q-.93 0-1.75-.35-.82-.35-1.43-.96-.61-.6-.96-1.42-.35-.81-.35-1.74h1.5q0 1.24.87 2.11.87.86 2.11.86 1.24 0 2.11-.87.86-.87.86-2.11 0-1.24-.87-2.11-.87-.86-2.11-.86h-.06l.59.58-.81.85-2.18-2.18 2.18-2.17.81.85-.58.57h.04q.93 0 1.74.35.82.35 1.43.96.61.61.97 1.42.35.81.35 1.73 0 .92-.35 1.74-.35.82-.96 1.43-.61.61-1.42.96-.82.35-1.74.35Z" />
</svg>
