<svg xmlns="http://www.w3.org/2000/svg" width="24" height="24" viewBox="0 0 24 24">
    <path d="M17.5 4.5c-1.95 0-4.05.4-5.5 1.5-1.45-1.1-3.55-1.5-5.5-1.5S2.45 4.9 1 6v14.65c0 .65.73.45.75.45C3.1 20.45 5.05 20 6.5 20c1.95 0 4.05.4 5.5 1.5 1.35-.85 3.8-1.5 5.5-1.5 1.65 0 3.35.3 4.75 1.05C22.66 21.26 23 20.86 23 20.6V6C21.51 4.88 19.37 4.5 17.5 4.5zM21 18.4c-1-.5-2.5-.6-3.5-.6-1.5 0-4.1.5-4.5 1.2V8c.3-.7 3-1.5 4.5-1.5 1 0 2.5.1 3.5.5V18.4zM11 19c-.4-.7-3-1.2-4.5-1.2-1 0-2.5.1-3.5.6V7c1-.4 2.5-.5 3.5-.5 1.5 0 4.2.8 4.5 1.5V8z" />
</svg>
