<svg xmlns="http://www.w3.org/2000/svg" width="24" height="24" viewBox="0 0 24 24">
    <path d="M17.5 3.2c-1.95 0-4.05.4-5.5 1.5-1.45-1.1-3.55-1.5-5.5-1.5S2.45 3.6 1 4.7v14.65c0 .65.73.45.75.45C3.1 19.15 5.05 18.7 6.5 18.7c1.95 0 4.05.4 5.5 1.5 1.35-.85 3.8-1.5 5.5-1.5 1.65 0 3.35.3 4.75 1.05C22.66 19.96 23 19.56 23 19.3V4.7C21.51 3.58 19.37 3.2 17.5 3.2zM21 17.2c-1.1-.35-2.3-.5-3.5-.5-1.7 0-4.15.65-5.5 1.5V6.7c1.35-.85 3.8-1.5 5.5-1.5 1.2 0 2.4.15 3.5.5V17.2zM6.5 7.8l1.0875 2.8875 2.8875 1.0875-2.8875 1.0875-1.0875 2.8875-1.0875-2.8875-2.8875-1.0875 2.8875-1.0875 1.0875-2.8875z" />
</svg>
