<svg xmlns="http://www.w3.org/2000/svg" width="24" height="24" viewBox="0 0 24 24">
    <path d="M17.5 4c-1.95 0-4.05.4-5.5 1.5-1.45-1.1-3.55-1.5-5.5-1.5S2.45 4.4 1 5.5v14.65c0 .65.73.45.75.45C3.1 19.95 5.05 19.5 6.5 19.5c1.95 0 4.05.4 5.5 1.5 1.35-.85 3.8-1.5 5.5-1.5 1.65 0 3.35.3 4.75 1.05C22.66 20.76 23 20.36 23 20.1V5.5C21.51 4.38 19.37 4 17.5 4zM21 17.9c-1-.5-2.5-.6-3.5-.6-1.5 0-4.1.5-4.5 1.2V7.5c.3-.7 3-1.5 4.5-1.5 1 0 2.5.1 3.5.5V17.9zM11 18.5c-.4-.7-3-1.2-4.5-1.2-1 0-2.5.1-3.5.6V6.5c1-.4 2.5-.5 3.5-.5 1.5 0 4.2.8 4.5 1.5V7.5z" />
</svg>
