<svg xmlns="http://www.w3.org/2000/svg" width="24" height="24" viewBox="0 0 24 24">
    <path d="M21 3.7c-1.11-.35-2.33-.5-3.5-.5-1.95 0-4.05.4-5.5 1.5-1.45-1.1-3.55-1.5-5.5-1.5-1.95 0-4.05.4-5.5 1.5v14.65c0 .25.25.5.5.5.1 0 .15-.05.25-.05 1.35-.65 3.3-1.1 4.75-1.1 1.95 0 4.05.4 5.5 1.5v-13.5c1.35-.85 3.8-1.5 5.5-1.5 1.2 0 2.4.15 3.5.5v6c.6.1 1.7.7 2 1v-8c-.6-.45-1.25-.75-2-1ZM18.5 12.5c-2.9 0-5.25 2.35-5.25 5.25a5.25 5.25 90 005.25 5.25c2.9 0 5.25-2.35 5.25-5.25a5.25 5.25 90 00-5.25-5.25m0 1.61c2 0 3.64 1.63 3.64 3.64a3.64 3.64 90 01-3.64 3.64c-2.01 0-3.64-1.63-3.64-3.64a3.64 3.64 90 013.64-3.64m-.75 1.39v2.77l2.39 1.38.56-.97-1.83-1.06v-2.12" />
</svg>
