<svg xmlns="http://www.w3.org/2000/svg" width="24" height="24" viewBox="0 0 24 24">
    <path d="M21 3.7c-1.11-.35-2.33-.5-3.5-.5-1.95 0-4.05.4-5.5 1.5-1.45-1.1-3.55-1.5-5.5-1.5-1.95 0-4.05.4-5.5 1.5v14.65c0 .25.25.5.5.5.1 0 .15-.05.25-.05 1.35-.65 3.3-1.1 4.75-1.1 1.95 0 4.05.4 5.5 1.5v-13.5c1.35-.85 3.8-1.5 5.5-1.5 1.2 0 2.4.15 3.5.5v6c.6.1 1.7.7 2 1v-8c-.6-.45-1.25-.75-2-1ZM18 12.8c-.13 0-.24.09-.26.21l-.19 1.32c-.3.13-.59.29-.85.47l-1.24-.5c-.11 0-.24 0-.31.13l-1 1.73c-.06.11-.04.24.06.32l1.06.82c-.02.17-.03.33-.03.5 0 .17.01.33.03.5l-1.06.82c-.09.08-.12.21-.06.32l1 1.73c.06.13.19.13.31.13l1.24-.5c.26.18.54.35.85.47l.19 1.32c.02.12.12.21.26.21h2c.11 0 .22-.09.24-.21l.19-1.32c.3-.13.57-.29.84-.47l1.23.5c.13 0 .26 0 .33-.13l1-1.73c.06-.11.03-.24-.06-.32l-1.07-.82c.02-.17.04-.33.04-.5 0-.17-.01-.33-.04-.5l1.06-.82c.09-.08.12-.21.06-.32l-1-1.73c-.06-.13-.19-.13-.32-.13l-1.23.5c-.27-.18-.54-.35-.85-.47l-.19-1.32c-.01-.12-.12-.21-.23-.21h-2m1 3.5c.83 0 1.5.67 1.5 1.5 0 .83-.67 1.5-1.5 1.5-.84 0-1.5-.67-1.5-1.5 0-.83.67-1.5 1.5-1.5Z" />
</svg>
