<svg xmlns="http://www.w3.org/2000/svg" width="24" height="24" viewBox="0 0 24 24">
    <path d="M21 4.5c-1.11-.35-2.33-.5-3.5-.5-1.95 0-4.05.4-5.5 1.5-1.45-1.1-3.55-1.5-5.5-1.5-1.95 0-4.05.4-5.5 1.5v14.65c0 .25.25.5.5.5.1 0 .15-.05.25-.05 1.35-.65 3.3-1.1 4.75-1.1 1.95 0 4.05.4 5.5 1.5v-13.5c1.35-.85 3.8-1.5 5.5-1.5 1.2 0 2.4.15 3.5.5v6c.6.1 1.7.7 2 1v-8c-.6-.45-1.25-.75-2-1ZM18 16.3l-2.0295-2.0295c.711-.4725 1.5615-.747 2.4795-.747 2.484 0 4.5 2.016 4.5 4.5 0 .918-.2745 1.7685-.747 2.4795l-.657-.657c.3195-.531.504-1.1565.504-1.8225 0-1.5075-.9315-2.799-2.25-3.3345v.1845c0 .495-.405.9-.9.9h-.9v.5265zm4.5855 5.859-.6345.6345-1.0215-1.0215c-.711.477-1.5615.7515-2.4795.7515-2.484 0-4.5-2.016-4.5-4.5 0-.918.2745-1.7685.747-2.4795l-1.0215-1.0215.6345-.6345 8.2755 8.271zm-4.5855-1.4355c-.495 0-.9-.405-.9-.9v-.45l-2.1555-2.1555c-.0585.261-.0945.5265-.0945.8055 0 1.836 1.3725 3.348 3.15 3.5685v-.8685z" />
</svg>
